<svg version="1.2" xmlns="http://www.w3.org/2000/svg" viewBox="0 0 400 400" width="400" height="400">
	<title>New Project</title>
	<style>
		.s0 { fill: #fbab63 } 
		.s1 { fill: #f18b2f } 
		.s2 { fill: #ff6c00 } 
	</style>
	<path id="Shape 4" fill-rule="evenodd" class="s0" d="m41.1 244.2c-22.7-62.7 24.9-137.3 106.5-166.9 81.6-29.6 165.9-3 188.7 59.7 22.7 62.6-24.9 137.2-106.5 166.8-81.6 29.7-165.9 3-188.7-59.6z"/>
	<path id="Shape 3" fill-rule="evenodd" class="s1" d="m245 379c-71.9 0-130-53.4-130-119.5 0-66.1 58.1-119.5 130-119.5 71.9 0 130 53.4 130 119.5 0 66.1-58.1 119.5-130 119.5z"/>
	<g id="Layer 1">
		<g id="Folder 1">
			<path id="Shape 2" fill-rule="evenodd" class="s2" d="m168 296c-63 0-114-55.9-114-125 0-69.1 51-125 114-125 63 0 114 55.9 114 125 0 69.1-51 125-114 125z"/>
		</g>
	</g>
</svg>